<svg width="95" height="95" viewBox="0 0 95 95" fill="none" xmlns="http://www.w3.org/2000/svg">
<circle cx="47.5" cy="47.5" r="47.5" fill="#B23A39"/>
<path fill-rule="evenodd" clip-rule="evenodd" d="M78.2412 38.1533L71.443 21.5486C70.7956 19.5951 68.1411 15.6881 62.7026 15.6881H36.4811C31.0425 15.6881 28.388 19.5951 27.7406 21.5486L20.9424 38.1533H14.1442L12.2019 40.1068V44.9905H17.0577L16.734 58.7432L19.9712 66.479V71.3627H29.6829V66.479H66.5872V72.3395H77.27V66.479L80.1835 58.7432V44.9905H82.1259H86.9817V40.1068L85.0394 38.1533H78.2412ZM33.5676 54.758C32.7906 56.3208 30.6541 56.0604 29.6829 55.7348C27.7406 54.758 24.8271 53.7813 21.9136 53.7813C20.1763 53.7813 19.9712 52.9067 19.9712 51.8278C19.9712 50.851 21.5251 48.7022 23.8559 47.9208C26.7694 46.944 29.6829 49.5487 31.6252 50.851C32.5964 51.5022 34.3445 53.1952 33.5676 54.758ZM63.6737 54.758C64.4506 56.3208 66.5872 56.0604 67.5584 55.7348C69.5007 54.758 72.4142 53.7813 75.3277 53.7813C77.065 53.7813 77.27 52.9067 77.27 51.8278C77.27 50.851 75.7162 48.7022 73.3854 47.9208C70.4719 46.944 67.5584 49.5487 65.616 50.851C64.6449 51.5022 62.8968 53.1952 63.6737 54.758ZM71.443 39.1301H26.7694L32.5964 21.5486H65.616L71.443 39.1301Z" fill="white"/>
</svg>
