<svg width="95" height="95" viewBox="0 0 95 95" fill="none" xmlns="http://www.w3.org/2000/svg">
<path fill-rule="evenodd" clip-rule="evenodd" d="M95 47.5C95 73.7335 73.7335 95 47.5 95C21.2665 95 0 73.7335 0 47.5C0 21.2665 21.2665 0 47.5 0C73.7335 0 95 21.2665 95 47.5ZM61.7826 51.3913L74.8913 64.5V67.413L67.6087 74.6956L64.6957 74.6957L51.587 61.587L50.1304 54.3044L47.5217 51.6957L45.8913 53.3261L44.4348 60.6087L31.3261 73.7174H28.413L21.1304 66.4348L21.1304 63.5217L34.2391 50.413L41.5217 48.9565L43.1522 47.3261L35.5652 39.7391H32.6522L21.913 29V26.087L26.2826 21.7174H29.1957L39.9348 32.4565L39.9348 35.3696L47.5217 42.9565L53.1739 37.3043L50.2609 34.3913V31.4783V22.7391L56.087 16.913H61.913L64.8261 19.8261L57.5435 24.1957V32.9348L59 34.3913L60.4565 35.8478L61.913 37.3043H70.6522L75.0217 30.0217L77.9348 32.9348L77.9348 38.7609L72.1087 44.587H63.3696H60.4565L57.5435 41.6739L53.1739 46.0435L51.8913 47.3261L54.5 49.9348L61.7826 51.3913Z" fill="#B23A39"/>
</svg>
